<svg width="81" height="100" viewBox="0 0 81 100" fill="none" xmlns="http://www.w3.org/2000/svg">
<g filter="url(#filter0_d_218_1060)">
<rect x="4" y="2" width="73" height="73" rx="15" fill="#FCFCFC"/>
</g>
<g clip-path="url(#clip0_218_1060)">
<path fill-rule="evenodd" clip-rule="evenodd" d="M24.588 20.1199C23.2741 20.4738 22.2744 21.4837 21.9302 22.8049C21.768 23.4277 21.768 45.9227 21.9302 46.5454C22.2784 47.8821 23.2822 48.8859 24.6189 49.2341C24.9682 49.325 25.9326 49.3416 30.8689 49.3416H36.7059V51.0034V52.6651L36.2543 52.6655C34.2064 52.6674 32.673 53.9403 32.4212 55.8476C32.3507 56.3815 32.356 56.4399 32.4914 56.6222C32.5719 56.7307 32.7159 56.8595 32.8114 56.9086C32.9458 56.9777 34.6529 56.9981 40.3713 56.9989L47.7576 57L47.9827 56.799C48.2685 56.5435 48.3277 56.1259 48.167 55.4987C47.7255 53.7754 46.2862 52.6651 44.4936 52.6651H43.9307V51.0034V49.3416H49.7677C54.704 49.3416 55.6684 49.325 56.0177 49.2341C57.3545 48.8859 58.3582 47.8821 58.7064 46.5454C58.8686 45.9227 58.8686 23.4277 58.7064 22.8049C58.3582 21.4682 57.3545 20.4644 56.0177 20.1163C55.4136 19.9589 25.1727 19.9624 24.588 20.1199ZM56.0793 21.6451C56.5087 21.8435 56.9791 22.314 57.1776 22.7434L57.3329 23.0793L57.3519 32.598L57.3711 42.1168H55.7092H54.0473L54.0284 33.6578L54.0094 25.1988L53.771 24.9857L53.5326 24.7727L50.3874 24.793L47.2422 24.8132L47.0314 25.0492L46.8207 25.2852V33.701V42.1168H45.0145H43.2083L43.2075 41.8458C43.2031 40.2082 42.9451 36.6427 42.7161 35.0517L42.5918 34.1886L43.0161 33.7274C43.4446 33.2617 43.6399 32.9467 43.8352 32.4063C44.1078 31.6524 44.0822 30.6144 43.7732 29.8886C43.6844 29.68 43.0227 28.4853 42.3028 27.2336C41.1533 25.2352 40.962 24.942 40.7345 24.8283C40.4331 24.6778 40.174 24.7176 39.9521 24.9482C39.6429 25.2695 37.1377 29.7185 36.9929 30.2036C36.6247 31.4366 36.9628 32.8052 37.8763 33.7796L38.0866 34.0039L37.9408 35.0439C37.6886 36.8422 37.4316 40.2567 37.4289 41.8458L37.4284 42.1168H35.6222H33.8159V36.6261V31.1354L32.2847 28.0719C30.7029 24.9073 30.6207 24.7771 30.2035 24.7771C29.7863 24.7771 29.7041 24.9073 28.1223 28.0719L26.5911 31.1354V36.6261V42.1168H24.9294H23.2676V32.7359C23.2676 22.5375 23.2501 22.9917 23.6683 22.3881C23.9231 22.0204 24.3022 21.7378 24.7482 21.5831C25.0878 21.4654 26.0475 21.4587 40.4267 21.4738L55.7434 21.4898L56.0793 21.6451ZM52.6006 26.9364V27.6507L52.0864 27.6798C51.615 27.7064 51.5548 27.7283 51.3639 27.942C51.2335 28.0879 51.1556 28.2552 51.1556 28.3895C51.1556 28.5239 51.2335 28.6912 51.3639 28.8371C51.5548 29.0508 51.615 29.0727 52.0864 29.0993L52.6006 29.1284V30.1958V31.2632L52.0864 31.2922C51.615 31.3189 51.5548 31.3408 51.3639 31.5544C51.2335 31.7003 51.1556 31.8677 51.1556 32.002C51.1556 32.1363 51.2335 32.3036 51.3639 32.4496C51.5548 32.6632 51.615 32.6851 52.0864 32.7117L52.6006 32.7408V33.8082V34.8756L52.0864 34.9046C51.615 34.9313 51.5548 34.9532 51.3639 35.1668C51.2335 35.3128 51.1556 35.4801 51.1556 35.6144C51.1556 35.7487 51.2335 35.916 51.3639 36.062C51.5548 36.2756 51.615 36.2975 52.0864 36.3242L52.6006 36.3532V37.7819V39.2105L52.0864 39.2396C51.615 39.2662 51.5548 39.2881 51.3639 39.5017C51.2335 39.6477 51.1556 39.815 51.1556 39.9493C51.1556 40.0836 51.2335 40.251 51.3639 40.3969C51.5548 40.6105 51.615 40.6324 52.0864 40.6591L52.6006 40.6881V41.4025V42.1168H50.4331H48.2657V34.1694V26.2221H50.4331H52.6006V26.9364ZM41.5045 28.7432C42.1725 29.9 42.5038 30.5483 42.5564 30.8019C42.7454 31.7123 42.2403 32.73 41.382 33.1683C40.9523 33.3878 40.2315 33.4295 39.7327 33.2638C39.2211 33.0939 38.6012 32.4803 38.4211 31.9658C38.2498 31.4765 38.2602 30.8222 38.4458 30.4125C38.738 29.7674 40.4146 26.9397 40.4713 26.9964C40.5033 27.0284 40.9682 27.8144 41.5045 28.7432ZM31.0891 28.8592L31.937 30.557H30.2035H28.47L29.318 28.8592C29.7843 27.9253 30.1828 27.1613 30.2035 27.1613C30.2242 27.1613 30.6227 27.9253 31.0891 28.8592ZM29.481 37.0594V42.1168H28.7585H28.036V37.0594V32.002H28.7585H29.481V37.0594ZM32.371 37.0594V42.1168H31.6485H30.926V37.0594V32.002H31.6485H32.371V37.0594ZM41.3082 35.4479C41.396 36.0907 41.5884 38.0463 41.6392 38.8114L41.6668 39.2268H40.3207H38.9746L38.9942 38.992C39.005 38.8628 39.0483 38.3183 39.0902 37.7819C39.1606 36.8832 39.3343 35.3974 39.4198 34.9624L39.4557 34.78L40.3385 34.7958L41.2214 34.8117L41.3082 35.4479ZM41.7633 41.3943V42.1168H40.3183H38.8733V41.3943V40.6718H40.3183H41.7633V41.3943ZM57.3566 44.9164C57.3355 46.1199 57.3155 46.3086 57.1776 46.607C56.9791 47.0363 56.5087 47.5068 56.0793 47.7053L55.7434 47.8605H40.3183H24.8932L24.5573 47.7053C24.128 47.5068 23.6575 47.0363 23.459 46.607C23.3211 46.3086 23.3011 46.1199 23.2801 44.9164L23.2564 43.5618H40.3183H57.3803L57.3566 44.9164ZM37.1674 45.0775C36.94 45.1694 36.7059 45.5043 36.7059 45.7378C36.7059 45.8632 36.7883 46.036 36.9166 46.1796L37.1274 46.4156L39.5494 46.4364L41.9716 46.4572L42.209 46.2451C42.4061 46.069 42.4464 45.9814 42.4464 45.7292C42.4464 45.4778 42.4059 45.3894 42.212 45.2161L41.9777 45.0067L39.6489 45.0113C38.368 45.0138 37.2514 45.0436 37.1674 45.0775ZM44.3923 45.0775C44.1648 45.1694 43.9307 45.5043 43.9307 45.7378C43.9307 46.027 44.2628 46.3741 44.5891 46.4259C44.8091 46.4609 44.8883 46.4333 45.0932 46.2502C45.2962 46.0689 45.3363 45.9829 45.3363 45.7292C45.3363 45.4778 45.2959 45.3894 45.102 45.2161C44.8646 45.004 44.6689 44.9658 44.3923 45.0775ZM42.4858 51.0034V52.6651H40.3183H38.1509V51.0034V49.3416H40.3183H42.4858V51.0034ZM45.2785 54.2177C45.7601 54.3608 46.2017 54.6906 46.4629 55.1025C46.5802 55.2875 46.6762 55.4649 46.6762 55.4969C46.6762 55.5289 43.8151 55.555 40.3183 55.555C36.8215 55.555 33.9604 55.5281 33.9604 55.4951C33.9604 55.3587 34.4176 54.7593 34.6666 54.5695C35.2714 54.1082 35.1874 54.115 40.2871 54.1124C44.1827 54.1104 44.9734 54.1271 45.2785 54.2177Z" fill="#FF6600"/>
</g>
<path d="M26.1816 93.3672V96.082C26.0807 96.2155 25.9229 96.362 25.708 96.5215C25.4964 96.6777 25.2148 96.8128 24.8633 96.9268C24.5117 97.0407 24.0739 97.0977 23.5498 97.0977C23.1038 97.0977 22.6953 97.0228 22.3242 96.873C21.9531 96.7201 21.6325 96.4971 21.3623 96.2041C21.0954 95.9111 20.8887 95.5547 20.7422 95.1348C20.5957 94.7116 20.5225 94.2298 20.5225 93.6895V93.1963C20.5225 92.6592 20.5892 92.1807 20.7227 91.7607C20.8594 91.3376 21.0547 90.9795 21.3086 90.6865C21.5625 90.3936 21.8685 90.1722 22.2266 90.0225C22.5879 89.8695 22.9964 89.793 23.4521 89.793C24.0348 89.793 24.5166 89.8906 24.8975 90.0859C25.2816 90.278 25.5778 90.5449 25.7861 90.8867C25.9945 91.2285 26.1263 91.6191 26.1816 92.0586H24.9805C24.9414 91.8112 24.8649 91.5898 24.751 91.3945C24.6403 91.1992 24.4808 91.0462 24.2725 90.9355C24.0674 90.8216 23.8005 90.7646 23.4717 90.7646C23.1885 90.7646 22.9395 90.8184 22.7246 90.9258C22.5098 91.0332 22.3307 91.1911 22.1875 91.3994C22.0475 91.6077 21.9417 91.8617 21.8701 92.1611C21.7985 92.4606 21.7627 92.8024 21.7627 93.1865V93.6895C21.7627 94.0801 21.8034 94.4268 21.8848 94.7295C21.9694 95.0322 22.0898 95.2878 22.2461 95.4961C22.4056 95.7044 22.5993 95.8623 22.8271 95.9697C23.055 96.0739 23.3122 96.126 23.5986 96.126C23.8786 96.126 24.1081 96.1032 24.2871 96.0576C24.4661 96.0088 24.6077 95.9518 24.7119 95.8867C24.8193 95.8184 24.9023 95.7533 24.9609 95.6914V94.2803H23.4814V93.3672H26.1816ZM28.6035 92.7227V97H27.4268V91.7168H28.5498L28.6035 92.7227ZM30.2197 91.6826L30.21 92.7764C30.1383 92.7633 30.0602 92.7536 29.9756 92.7471C29.8942 92.7406 29.8128 92.7373 29.7314 92.7373C29.5296 92.7373 29.3522 92.7666 29.1992 92.8252C29.0462 92.8805 28.9176 92.9619 28.8135 93.0693C28.7126 93.1735 28.6344 93.3005 28.5791 93.4502C28.5238 93.5999 28.4912 93.7676 28.4814 93.9531L28.2129 93.9727C28.2129 93.6406 28.2454 93.333 28.3105 93.0498C28.3757 92.7666 28.4733 92.5176 28.6035 92.3027C28.737 92.0879 28.903 91.9202 29.1016 91.7998C29.3034 91.6794 29.5361 91.6191 29.7998 91.6191C29.8714 91.6191 29.9479 91.6257 30.0293 91.6387C30.1139 91.6517 30.1774 91.6663 30.2197 91.6826ZM33.7598 95.9404V93.4209C33.7598 93.2321 33.7256 93.0693 33.6572 92.9326C33.5889 92.7959 33.4847 92.6901 33.3447 92.6152C33.208 92.5404 33.0355 92.5029 32.8271 92.5029C32.6351 92.5029 32.4691 92.5355 32.3291 92.6006C32.1891 92.6657 32.0801 92.7536 32.002 92.8643C31.9238 92.9749 31.8848 93.1003 31.8848 93.2402H30.7129C30.7129 93.0319 30.7633 92.8301 30.8643 92.6348C30.9652 92.4395 31.1117 92.2653 31.3037 92.1123C31.4958 91.9593 31.7253 91.8389 31.9922 91.751C32.2591 91.6631 32.5586 91.6191 32.8906 91.6191C33.2878 91.6191 33.6393 91.6859 33.9453 91.8193C34.2546 91.9528 34.4971 92.1546 34.6729 92.4248C34.8519 92.6917 34.9414 93.027 34.9414 93.4307V95.7793C34.9414 96.0202 34.9577 96.2367 34.9902 96.4287C35.026 96.6175 35.0765 96.7819 35.1416 96.9219V97H33.9355C33.8802 96.873 33.8363 96.7119 33.8037 96.5166C33.7744 96.318 33.7598 96.126 33.7598 95.9404ZM33.9307 93.7871L33.9404 94.5146H33.0957C32.8776 94.5146 32.6855 94.5358 32.5195 94.5781C32.3535 94.6172 32.2152 94.6758 32.1045 94.7539C31.9938 94.832 31.9108 94.9264 31.8555 95.0371C31.8001 95.1478 31.7725 95.2731 31.7725 95.4131C31.7725 95.5531 31.805 95.6816 31.8701 95.7988C31.9352 95.9128 32.0296 96.0023 32.1533 96.0674C32.2803 96.1325 32.4333 96.165 32.6123 96.165C32.8532 96.165 33.0632 96.1162 33.2422 96.0186C33.4245 95.9176 33.5677 95.7956 33.6719 95.6523C33.776 95.5059 33.8314 95.3675 33.8379 95.2373L34.2188 95.7598C34.1797 95.8932 34.113 96.0365 34.0186 96.1895C33.9242 96.3424 33.8005 96.4889 33.6475 96.6289C33.4977 96.7656 33.3171 96.8779 33.1055 96.9658C32.8971 97.0537 32.6562 97.0977 32.3828 97.0977C32.0378 97.0977 31.7301 97.0293 31.46 96.8926C31.1898 96.7526 30.9782 96.5654 30.8252 96.3311C30.6722 96.0934 30.5957 95.8249 30.5957 95.5254C30.5957 95.2454 30.6478 94.998 30.752 94.7832C30.8594 94.5651 31.0156 94.3828 31.2207 94.2363C31.429 94.0898 31.6829 93.9792 31.9824 93.9043C32.2819 93.8262 32.6237 93.7871 33.0078 93.7871H33.9307ZM37.3535 92.7324V99.0312H36.1768V91.7168H37.2607L37.3535 92.7324ZM40.7959 94.3096V94.4121C40.7959 94.7962 40.7503 95.1527 40.6592 95.4814C40.5713 95.807 40.4395 96.0918 40.2637 96.3359C40.0911 96.5768 39.8779 96.764 39.624 96.8975C39.3701 97.0309 39.0771 97.0977 38.7451 97.0977C38.4163 97.0977 38.1283 97.0374 37.8809 96.917C37.6367 96.7933 37.43 96.6191 37.2607 96.3945C37.0915 96.1699 36.9548 95.9062 36.8506 95.6035C36.7497 95.2975 36.6781 94.9622 36.6357 94.5977V94.2021C36.6781 93.8148 36.7497 93.4632 36.8506 93.1475C36.9548 92.8317 37.0915 92.5599 37.2607 92.332C37.43 92.1042 37.6367 91.9284 37.8809 91.8047C38.125 91.681 38.4098 91.6191 38.7354 91.6191C39.0674 91.6191 39.362 91.6842 39.6191 91.8145C39.8763 91.9414 40.0928 92.1237 40.2686 92.3613C40.4443 92.5957 40.5762 92.8789 40.6641 93.2109C40.752 93.5397 40.7959 93.9059 40.7959 94.3096ZM39.6191 94.4121V94.3096C39.6191 94.0654 39.5964 93.8392 39.5508 93.6309C39.5052 93.4193 39.4336 93.2337 39.3359 93.0742C39.2383 92.9147 39.113 92.791 38.96 92.7031C38.8102 92.612 38.6296 92.5664 38.418 92.5664C38.2096 92.5664 38.0306 92.6022 37.8809 92.6738C37.7311 92.7422 37.6058 92.8382 37.5049 92.9619C37.404 93.0856 37.3258 93.2305 37.2705 93.3965C37.2152 93.5592 37.1761 93.7367 37.1533 93.9287V94.876C37.1924 95.1104 37.2591 95.3252 37.3535 95.5205C37.4479 95.7158 37.5814 95.8721 37.7539 95.9893C37.9297 96.1032 38.1543 96.1602 38.4277 96.1602C38.6393 96.1602 38.82 96.1146 38.9697 96.0234C39.1195 95.9323 39.2415 95.807 39.3359 95.6475C39.4336 95.4847 39.5052 95.2975 39.5508 95.0859C39.5964 94.8743 39.6191 94.6497 39.6191 94.4121ZM42.959 89.5V97H41.7871V89.5H42.959ZM42.7539 94.1631L42.373 94.1582C42.3763 93.7936 42.4268 93.4567 42.5244 93.1475C42.6253 92.8382 42.7653 92.5697 42.9443 92.3418C43.1266 92.1107 43.3447 91.9333 43.5986 91.8096C43.8525 91.6826 44.1341 91.6191 44.4434 91.6191C44.7038 91.6191 44.9382 91.6549 45.1465 91.7266C45.3581 91.7982 45.5404 91.9137 45.6934 92.0732C45.8464 92.2295 45.9619 92.4346 46.04 92.6885C46.1214 92.9391 46.1621 93.2451 46.1621 93.6064V97H44.9805V93.5967C44.9805 93.3428 44.943 93.141 44.8682 92.9912C44.7965 92.8415 44.6908 92.734 44.5508 92.6689C44.4108 92.6006 44.2399 92.5664 44.0381 92.5664C43.8265 92.5664 43.6393 92.6087 43.4766 92.6934C43.3171 92.778 43.1836 92.8936 43.0762 93.04C42.9688 93.1865 42.8874 93.3558 42.832 93.5479C42.7799 93.7399 42.7539 93.945 42.7539 94.1631ZM48.6133 91.7168V97H47.4316V91.7168H48.6133ZM47.3535 90.3301C47.3535 90.151 47.4121 90.0029 47.5293 89.8857C47.6497 89.7653 47.8158 89.7051 48.0273 89.7051C48.2357 89.7051 48.4001 89.7653 48.5205 89.8857C48.641 90.0029 48.7012 90.151 48.7012 90.3301C48.7012 90.5059 48.641 90.6523 48.5205 90.7695C48.4001 90.8867 48.2357 90.9453 48.0273 90.9453C47.8158 90.9453 47.6497 90.8867 47.5293 90.7695C47.4121 90.6523 47.3535 90.5059 47.3535 90.3301ZM52.0605 96.1602C52.2526 96.1602 52.4251 96.1227 52.5781 96.0479C52.7344 95.9697 52.8597 95.8623 52.9541 95.7256C53.0518 95.5889 53.1055 95.431 53.1152 95.252H54.2236C54.2171 95.5938 54.1162 95.9046 53.9209 96.1846C53.7256 96.4645 53.4668 96.6875 53.1445 96.8535C52.8223 97.0163 52.4658 97.0977 52.0752 97.0977C51.6715 97.0977 51.32 97.0293 51.0205 96.8926C50.721 96.7526 50.472 96.5605 50.2734 96.3164C50.0749 96.0723 49.9251 95.7907 49.8242 95.4717C49.7266 95.1527 49.6777 94.8109 49.6777 94.4463V94.2754C49.6777 93.9108 49.7266 93.569 49.8242 93.25C49.9251 92.9277 50.0749 92.6445 50.2734 92.4004C50.472 92.1562 50.721 91.9658 51.0205 91.8291C51.32 91.6891 51.6699 91.6191 52.0703 91.6191C52.4935 91.6191 52.8646 91.7038 53.1836 91.873C53.5026 92.0391 53.7533 92.2718 53.9355 92.5713C54.1211 92.8675 54.2171 93.2126 54.2236 93.6064H53.1152C53.1055 93.4111 53.0566 93.2354 52.9688 93.0791C52.8841 92.9196 52.7637 92.7926 52.6074 92.6982C52.4544 92.6038 52.2705 92.5566 52.0557 92.5566C51.818 92.5566 51.6211 92.6055 51.4648 92.7031C51.3086 92.7975 51.1865 92.9277 51.0986 93.0938C51.0107 93.2565 50.9473 93.4404 50.9082 93.6455C50.8724 93.8473 50.8545 94.0573 50.8545 94.2754V94.4463C50.8545 94.6644 50.8724 94.876 50.9082 95.0811C50.944 95.2861 51.0059 95.4701 51.0938 95.6328C51.1849 95.7923 51.3086 95.9209 51.4648 96.0186C51.6211 96.113 51.8197 96.1602 52.0605 96.1602ZM58.0908 95.5693C58.0908 95.4521 58.0615 95.3464 58.0029 95.252C57.9443 95.1543 57.832 95.0664 57.666 94.9883C57.5033 94.9102 57.2624 94.8385 56.9434 94.7734C56.6634 94.7116 56.4062 94.6383 56.1719 94.5537C55.9408 94.4658 55.7422 94.36 55.5762 94.2363C55.4102 94.1126 55.2816 93.9661 55.1904 93.7969C55.0993 93.6276 55.0537 93.4323 55.0537 93.2109C55.0537 92.9961 55.1009 92.7926 55.1953 92.6006C55.2897 92.4085 55.4248 92.2393 55.6006 92.0928C55.7764 91.9463 55.9896 91.8307 56.2402 91.7461C56.4941 91.6615 56.7773 91.6191 57.0898 91.6191C57.5326 91.6191 57.9118 91.694 58.2275 91.8438C58.5465 91.9902 58.7907 92.1904 58.96 92.4443C59.1292 92.695 59.2139 92.9782 59.2139 93.2939H58.0371C58.0371 93.154 58.0013 93.0238 57.9297 92.9033C57.8613 92.7796 57.7572 92.6803 57.6172 92.6055C57.4772 92.5273 57.3014 92.4883 57.0898 92.4883C56.888 92.4883 56.7204 92.5208 56.5869 92.5859C56.4567 92.6478 56.359 92.7292 56.2939 92.8301C56.2321 92.931 56.2012 93.0417 56.2012 93.1621C56.2012 93.25 56.2174 93.3298 56.25 93.4014C56.2858 93.4697 56.3444 93.5332 56.4258 93.5918C56.5072 93.6471 56.6178 93.6992 56.7578 93.748C56.901 93.7969 57.0801 93.8441 57.2949 93.8896C57.6986 93.9743 58.0452 94.0833 58.335 94.2168C58.6279 94.347 58.8525 94.5163 59.0088 94.7246C59.165 94.9297 59.2432 95.1901 59.2432 95.5059C59.2432 95.7402 59.1927 95.9551 59.0918 96.1504C58.9941 96.3424 58.8509 96.5101 58.6621 96.6533C58.4733 96.7933 58.2471 96.9023 57.9834 96.9805C57.723 97.0586 57.43 97.0977 57.1045 97.0977C56.626 97.0977 56.2207 97.013 55.8887 96.8438C55.5566 96.6712 55.3044 96.4515 55.1318 96.1846C54.9626 95.9144 54.8779 95.6344 54.8779 95.3447H56.0156C56.0286 95.5628 56.0889 95.737 56.1963 95.8672C56.307 95.9941 56.4437 96.0869 56.6064 96.1455C56.7725 96.2008 56.9434 96.2285 57.1191 96.2285C57.3307 96.2285 57.5081 96.2008 57.6514 96.1455C57.7946 96.0869 57.9036 96.0088 57.9785 95.9111C58.0534 95.8102 58.0908 95.6963 58.0908 95.5693Z" fill="black"/>
<defs>
<filter id="filter0_d_218_1060" x="0" y="0" width="81" height="81" filterUnits="userSpaceOnUse" color-interpolation-filters="sRGB">
<feFlood flood-opacity="0" result="BackgroundImageFix"/>
<feColorMatrix in="SourceAlpha" type="matrix" values="0 0 0 0 0 0 0 0 0 0 0 0 0 0 0 0 0 0 127 0" result="hardAlpha"/>
<feOffset dy="2"/>
<feGaussianBlur stdDeviation="2"/>
<feComposite in2="hardAlpha" operator="out"/>
<feColorMatrix type="matrix" values="0 0 0 0 0 0 0 0 0 0 0 0 0 0 0 0 0 0 0.1 0"/>
<feBlend mode="normal" in2="BackgroundImageFix" result="effect1_dropShadow_218_1060"/>
<feBlend mode="normal" in="SourceGraphic" in2="effect1_dropShadow_218_1060" result="shape"/>
</filter>
<clipPath id="clip0_218_1060">
<rect width="37" height="37" fill="white" transform="translate(22 20)"/>
</clipPath>
</defs>
</svg>
