<svg width="105" height="100" viewBox="0 0 105 100" fill="none" xmlns="http://www.w3.org/2000/svg">
<g filter="url(#filter0_d_218_1055)">
<rect x="16" y="2" width="73" height="73" rx="15" fill="#FCFCFC"/>
</g>
<path fill-rule="evenodd" clip-rule="evenodd" d="M51.4521 20.1085C50.8557 20.2212 50.2974 20.411 49.758 20.6844C49.1222 21.0066 38.6339 27.0704 38.196 27.369C37.089 28.1238 36.235 29.3678 35.8613 30.7701L35.6982 31.3817V38.4999V45.6181L35.8613 46.2297C36.235 47.632 37.089 48.876 38.196 49.6308C38.6343 49.9296 49.1222 55.9932 49.7595 56.3163C51.5069 57.2019 53.4931 57.2019 55.2405 56.3163C55.8778 55.9932 66.3657 49.9296 66.804 49.6308C67.911 48.876 68.765 47.632 69.1387 46.2297L69.3018 45.6181V38.4999V31.3817L69.1387 30.7701C68.765 29.3678 67.911 28.1238 66.804 27.369C66.335 27.0492 55.8305 20.9808 55.2015 20.6663C54.0064 20.0687 52.6951 19.8737 51.4521 20.1085ZM53.5479 23.0869C53.9619 23.2461 64.7182 29.4296 65.2333 29.8046C65.6398 30.1006 66.0151 30.5936 66.2437 31.1318L66.4111 31.5263L66.4312 38.2831C66.4443 42.7305 66.4257 45.159 66.3766 45.3884C66.3355 45.5801 66.217 45.9166 66.1132 46.1361C65.7261 46.9543 65.6357 47.0147 59.5059 50.5471C56.388 52.3439 53.6906 53.8697 53.5117 53.9378C53.0314 54.1207 51.9274 54.1109 51.4521 53.9194C51.0206 53.7457 40.2554 47.551 39.7667 47.1952C39.371 46.9071 39.011 46.4317 38.764 45.871L38.5889 45.4735L38.5688 38.7167C38.5561 34.4199 38.5751 31.8373 38.6209 31.6232C38.7383 31.0745 39.0631 30.4769 39.4564 30.0859C39.751 29.7931 40.9631 29.0638 45.4995 26.4495C48.6204 24.651 51.3179 23.1326 51.4937 23.0754C51.6696 23.0181 51.8785 22.9548 51.958 22.9347C52.2496 22.8609 53.1953 22.9514 53.5479 23.0869ZM44.3701 32.585C43.5579 32.8842 43.1773 33.787 43.5331 34.5706C43.6412 34.8088 44.0989 35.2313 45.8029 36.6663C46.9768 37.6549 47.9372 38.48 47.9372 38.4999C47.9372 38.5198 46.9764 39.3452 45.8021 40.3341C43.9917 41.8588 43.6451 42.1818 43.5227 42.4585C43.2209 43.1407 43.5039 43.9716 44.1533 44.3109C44.5043 44.4941 45.1366 44.507 45.4541 44.3374C45.5733 44.2738 46.9457 43.143 48.5038 41.8246C51.5485 39.2482 51.6328 39.1586 51.6328 38.4999C51.6328 37.8412 51.5485 37.7516 48.5038 35.1752C46.9457 33.8568 45.5797 32.7305 45.4683 32.6723C45.1974 32.5307 44.638 32.4862 44.3701 32.585ZM53.1143 41.7091C52.4647 41.9969 52.1026 42.7433 52.2846 43.4193C52.394 43.8254 52.8649 44.3075 53.259 44.4169C53.452 44.4706 54.6869 44.497 56.9805 44.4969L60.4131 44.4965L60.7879 44.3221C61.8762 43.8153 61.8699 42.2394 60.7774 41.7432C60.5065 41.6201 60.226 41.6106 56.9082 41.6117C54.0914 41.6127 53.2849 41.6334 53.1143 41.7091Z" fill="#FF6600"/>
<path d="M3.42285 94.3486H1.57227V93.377H3.42285C3.74512 93.377 4.00553 93.3249 4.2041 93.2207C4.40267 93.1165 4.54753 92.9733 4.63867 92.791C4.73307 92.6055 4.78027 92.3939 4.78027 92.1562C4.78027 91.9316 4.73307 91.7217 4.63867 91.5264C4.54753 91.3278 4.40267 91.1683 4.2041 91.0479C4.00553 90.9274 3.74512 90.8672 3.42285 90.8672H1.94824V97H0.722656V89.8906H3.42285C3.97298 89.8906 4.4401 89.9883 4.82422 90.1836C5.21159 90.3757 5.50618 90.6426 5.70801 90.9844C5.90983 91.3229 6.01074 91.7103 6.01074 92.1465C6.01074 92.6055 5.90983 92.9993 5.70801 93.3281C5.50618 93.6569 5.21159 93.9092 4.82422 94.085C4.4401 94.2607 3.97298 94.3486 3.42285 94.3486ZM8.17383 92.7227V97H6.99707V91.7168H8.12012L8.17383 92.7227ZM9.79004 91.6826L9.78027 92.7764C9.70866 92.7633 9.63053 92.7536 9.5459 92.7471C9.46452 92.7406 9.38314 92.7373 9.30176 92.7373C9.09993 92.7373 8.92253 92.7666 8.76953 92.8252C8.61654 92.8805 8.48796 92.9619 8.38379 93.0693C8.28288 93.1735 8.20475 93.3005 8.14941 93.4502C8.09408 93.5999 8.06152 93.7676 8.05176 93.9531L7.7832 93.9727C7.7832 93.6406 7.81576 93.333 7.88086 93.0498C7.94596 92.7666 8.04362 92.5176 8.17383 92.3027C8.30729 92.0879 8.47331 91.9202 8.67188 91.7998C8.8737 91.6794 9.10645 91.6191 9.37012 91.6191C9.44173 91.6191 9.51823 91.6257 9.59961 91.6387C9.68424 91.6517 9.74772 91.6663 9.79004 91.6826ZM10.1758 94.417V94.3047C10.1758 93.9238 10.2311 93.5706 10.3418 93.2451C10.4525 92.9163 10.612 92.6315 10.8203 92.3906C11.0319 92.1465 11.2891 91.9577 11.5918 91.8242C11.8978 91.6875 12.2428 91.6191 12.627 91.6191C13.0143 91.6191 13.3594 91.6875 13.6621 91.8242C13.9681 91.9577 14.2269 92.1465 14.4385 92.3906C14.6501 92.6315 14.8112 92.9163 14.9219 93.2451C15.0326 93.5706 15.0879 93.9238 15.0879 94.3047V94.417C15.0879 94.7979 15.0326 95.151 14.9219 95.4766C14.8112 95.8021 14.6501 96.0869 14.4385 96.3311C14.2269 96.5719 13.9697 96.7607 13.667 96.8975C13.3643 97.0309 13.0208 97.0977 12.6367 97.0977C12.2493 97.0977 11.9027 97.0309 11.5967 96.8975C11.2939 96.7607 11.0368 96.5719 10.8252 96.3311C10.6136 96.0869 10.4525 95.8021 10.3418 95.4766C10.2311 95.151 10.1758 94.7979 10.1758 94.417ZM11.3525 94.3047V94.417C11.3525 94.6546 11.377 94.8792 11.4258 95.0908C11.4746 95.3024 11.5511 95.488 11.6553 95.6475C11.7594 95.807 11.8929 95.9323 12.0557 96.0234C12.2184 96.1146 12.4121 96.1602 12.6367 96.1602C12.8548 96.1602 13.0436 96.1146 13.2031 96.0234C13.3659 95.9323 13.4993 95.807 13.6035 95.6475C13.7077 95.488 13.7842 95.3024 13.833 95.0908C13.8851 94.8792 13.9111 94.6546 13.9111 94.417V94.3047C13.9111 94.0703 13.8851 93.849 13.833 93.6406C13.7842 93.429 13.7061 93.2419 13.5986 93.0791C13.4945 92.9163 13.361 92.7894 13.1982 92.6982C13.0387 92.6038 12.8483 92.5566 12.627 92.5566C12.4056 92.5566 12.2135 92.6038 12.0508 92.6982C11.8913 92.7894 11.7594 92.9163 11.6553 93.0791C11.5511 93.2419 11.4746 93.429 11.4258 93.6406C11.377 93.849 11.3525 94.0703 11.3525 94.3047ZM19.458 91.7168H20.5273V96.8535C20.5273 97.3288 20.4264 97.7324 20.2246 98.0645C20.0228 98.3965 19.7412 98.6488 19.3799 98.8213C19.0186 98.9971 18.6003 99.085 18.125 99.085C17.9232 99.085 17.6986 99.0557 17.4512 98.9971C17.207 98.9385 16.9694 98.8441 16.7383 98.7139C16.5104 98.5869 16.32 98.4193 16.167 98.2109L16.7188 97.5176C16.9076 97.7422 17.1159 97.9066 17.3438 98.0107C17.5716 98.1149 17.8109 98.167 18.0615 98.167C18.3317 98.167 18.5612 98.1165 18.75 98.0156C18.9421 97.918 19.0902 97.7731 19.1943 97.5811C19.2985 97.389 19.3506 97.1546 19.3506 96.8779V92.9131L19.458 91.7168ZM15.8691 94.417V94.3145C15.8691 93.9141 15.918 93.5495 16.0156 93.2207C16.1133 92.8887 16.2533 92.6038 16.4355 92.3662C16.6178 92.1253 16.8392 91.9414 17.0996 91.8145C17.36 91.6842 17.6546 91.6191 17.9834 91.6191C18.3252 91.6191 18.6165 91.681 18.8574 91.8047C19.1016 91.9284 19.305 92.1058 19.4678 92.3369C19.6305 92.5648 19.7575 92.8382 19.8486 93.1572C19.943 93.473 20.013 93.8245 20.0586 94.2119V94.5391C20.0163 94.9167 19.9447 95.2617 19.8438 95.5742C19.7428 95.8867 19.6094 96.1569 19.4434 96.3848C19.2773 96.6126 19.0723 96.7884 18.8281 96.9121C18.5872 97.0358 18.3024 97.0977 17.9736 97.0977C17.6514 97.0977 17.36 97.0309 17.0996 96.8975C16.8424 96.764 16.6211 96.5768 16.4355 96.3359C16.2533 96.0951 16.1133 95.8118 16.0156 95.4863C15.918 95.1576 15.8691 94.8011 15.8691 94.417ZM17.0459 94.3145V94.417C17.0459 94.6579 17.0687 94.8825 17.1143 95.0908C17.1631 95.2992 17.2363 95.4831 17.334 95.6426C17.4349 95.7988 17.5618 95.9225 17.7148 96.0137C17.8711 96.1016 18.055 96.1455 18.2666 96.1455C18.5433 96.1455 18.7695 96.0869 18.9453 95.9697C19.1243 95.8525 19.2611 95.6947 19.3555 95.4961C19.4531 95.2943 19.5215 95.0697 19.5605 94.8223V93.9385C19.541 93.7464 19.5003 93.5674 19.4385 93.4014C19.3799 93.2354 19.3001 93.0905 19.1992 92.9668C19.0983 92.8398 18.9714 92.7422 18.8184 92.6738C18.6654 92.6022 18.4847 92.5664 18.2764 92.5664C18.0648 92.5664 17.8809 92.612 17.7246 92.7031C17.5684 92.7943 17.4398 92.9196 17.3389 93.0791C17.2412 93.2386 17.168 93.4242 17.1191 93.6357C17.0703 93.8473 17.0459 94.0736 17.0459 94.3145ZM22.9297 92.7227V97H21.7529V91.7168H22.876L22.9297 92.7227ZM24.5459 91.6826L24.5361 92.7764C24.4645 92.7633 24.3864 92.7536 24.3018 92.7471C24.2204 92.7406 24.139 92.7373 24.0576 92.7373C23.8558 92.7373 23.6784 92.7666 23.5254 92.8252C23.3724 92.8805 23.2438 92.9619 23.1396 93.0693C23.0387 93.1735 22.9606 93.3005 22.9053 93.4502C22.8499 93.5999 22.8174 93.7676 22.8076 93.9531L22.5391 93.9727C22.5391 93.6406 22.5716 93.333 22.6367 93.0498C22.7018 92.7666 22.7995 92.5176 22.9297 92.3027C23.0632 92.0879 23.2292 91.9202 23.4277 91.7998C23.6296 91.6794 23.8623 91.6191 24.126 91.6191C24.1976 91.6191 24.2741 91.6257 24.3555 91.6387C24.4401 91.6517 24.5036 91.6663 24.5459 91.6826ZM28.0859 95.9404V93.4209C28.0859 93.2321 28.0518 93.0693 27.9834 92.9326C27.915 92.7959 27.8109 92.6901 27.6709 92.6152C27.5342 92.5404 27.3617 92.5029 27.1533 92.5029C26.9613 92.5029 26.7952 92.5355 26.6553 92.6006C26.5153 92.6657 26.4062 92.7536 26.3281 92.8643C26.25 92.9749 26.2109 93.1003 26.2109 93.2402H25.0391C25.0391 93.0319 25.0895 92.8301 25.1904 92.6348C25.2913 92.4395 25.4378 92.2653 25.6299 92.1123C25.8219 91.9593 26.0514 91.8389 26.3184 91.751C26.5853 91.6631 26.8848 91.6191 27.2168 91.6191C27.6139 91.6191 27.9655 91.6859 28.2715 91.8193C28.5807 91.9528 28.8232 92.1546 28.999 92.4248C29.1781 92.6917 29.2676 93.027 29.2676 93.4307V95.7793C29.2676 96.0202 29.2839 96.2367 29.3164 96.4287C29.3522 96.6175 29.4027 96.7819 29.4678 96.9219V97H28.2617C28.2064 96.873 28.1624 96.7119 28.1299 96.5166C28.1006 96.318 28.0859 96.126 28.0859 95.9404ZM28.2568 93.7871L28.2666 94.5146H27.4219C27.2038 94.5146 27.0117 94.5358 26.8457 94.5781C26.6797 94.6172 26.5413 94.6758 26.4307 94.7539C26.32 94.832 26.237 94.9264 26.1816 95.0371C26.1263 95.1478 26.0986 95.2731 26.0986 95.4131C26.0986 95.5531 26.1312 95.6816 26.1963 95.7988C26.2614 95.9128 26.3558 96.0023 26.4795 96.0674C26.6064 96.1325 26.7594 96.165 26.9385 96.165C27.1794 96.165 27.3893 96.1162 27.5684 96.0186C27.7507 95.9176 27.8939 95.7956 27.998 95.6523C28.1022 95.5059 28.1576 95.3675 28.1641 95.2373L28.5449 95.7598C28.5059 95.8932 28.4391 96.0365 28.3447 96.1895C28.2503 96.3424 28.1266 96.4889 27.9736 96.6289C27.8239 96.7656 27.6432 96.8779 27.4316 96.9658C27.2233 97.0537 26.9824 97.0977 26.709 97.0977C26.3639 97.0977 26.0563 97.0293 25.7861 96.8926C25.516 96.7526 25.3044 96.5654 25.1514 96.3311C24.9984 96.0934 24.9219 95.8249 24.9219 95.5254C24.9219 95.2454 24.974 94.998 25.0781 94.7832C25.1855 94.5651 25.3418 94.3828 25.5469 94.2363C25.7552 94.0898 26.0091 93.9792 26.3086 93.9043C26.6081 93.8262 26.9499 93.7871 27.334 93.7871H28.2568ZM31.6748 92.791V97H30.498V91.7168H31.6064L31.6748 92.791ZM31.4844 94.1631L31.084 94.1582C31.084 93.7936 31.1296 93.4567 31.2207 93.1475C31.3118 92.8382 31.4453 92.5697 31.6211 92.3418C31.7969 92.1107 32.015 91.9333 32.2754 91.8096C32.5391 91.6826 32.8434 91.6191 33.1885 91.6191C33.4294 91.6191 33.6491 91.6549 33.8477 91.7266C34.0495 91.7949 34.2236 91.904 34.3701 92.0537C34.5199 92.2035 34.6338 92.3955 34.7119 92.6299C34.7933 92.8643 34.834 93.1475 34.834 93.4795V97H33.6572V93.582C33.6572 93.3249 33.6182 93.123 33.54 92.9766C33.4652 92.8301 33.3561 92.7259 33.2129 92.6641C33.0729 92.599 32.9053 92.5664 32.71 92.5664C32.4886 92.5664 32.2998 92.6087 32.1436 92.6934C31.9906 92.778 31.8652 92.8936 31.7676 93.04C31.6699 93.1865 31.5983 93.3558 31.5527 93.5479C31.5072 93.7399 31.4844 93.945 31.4844 94.1631ZM34.7607 93.8506L34.209 93.9727C34.209 93.6536 34.2529 93.3525 34.3408 93.0693C34.432 92.7829 34.5638 92.5322 34.7363 92.3174C34.9121 92.0993 35.1286 91.9284 35.3857 91.8047C35.6429 91.681 35.9375 91.6191 36.2695 91.6191C36.5397 91.6191 36.7806 91.6566 36.9922 91.7314C37.207 91.8031 37.3893 91.917 37.5391 92.0732C37.6888 92.2295 37.8027 92.4329 37.8809 92.6836C37.959 92.931 37.998 93.2305 37.998 93.582V97H36.8164V93.5771C36.8164 93.3102 36.7773 93.1035 36.6992 92.957C36.6243 92.8105 36.5169 92.7096 36.377 92.6543C36.237 92.5957 36.0693 92.5664 35.874 92.5664C35.6917 92.5664 35.5306 92.6006 35.3906 92.6689C35.2539 92.734 35.1383 92.8268 35.0439 92.9473C34.9495 93.0645 34.8779 93.1995 34.8291 93.3525C34.7835 93.5055 34.7607 93.6715 34.7607 93.8506ZM40.4688 91.7168V97H39.2871V91.7168H40.4688ZM39.209 90.3301C39.209 90.151 39.2676 90.0029 39.3848 89.8857C39.5052 89.7653 39.6712 89.7051 39.8828 89.7051C40.0911 89.7051 40.2555 89.7653 40.376 89.8857C40.4964 90.0029 40.5566 90.151 40.5566 90.3301C40.5566 90.5059 40.4964 90.6523 40.376 90.7695C40.2555 90.8867 40.0911 90.9453 39.8828 90.9453C39.6712 90.9453 39.5052 90.8867 39.3848 90.7695C39.2676 90.6523 39.209 90.5059 39.209 90.3301ZM42.9248 92.8447V97H41.748V91.7168H42.8564L42.9248 92.8447ZM42.7148 94.1631L42.334 94.1582C42.3372 93.7839 42.3893 93.4404 42.4902 93.1279C42.5944 92.8154 42.7376 92.5469 42.9199 92.3223C43.1055 92.0977 43.3268 91.9251 43.584 91.8047C43.8411 91.681 44.1276 91.6191 44.4434 91.6191C44.6973 91.6191 44.9268 91.6549 45.1318 91.7266C45.3402 91.7949 45.5176 91.9072 45.6641 92.0635C45.8138 92.2197 45.9277 92.4232 46.0059 92.6738C46.084 92.9212 46.123 93.2256 46.123 93.5869V97H44.9414V93.582C44.9414 93.3281 44.904 93.1279 44.8291 92.9814C44.7575 92.8317 44.6517 92.7259 44.5117 92.6641C44.375 92.599 44.2041 92.5664 43.999 92.5664C43.7972 92.5664 43.6165 92.6087 43.457 92.6934C43.2975 92.778 43.1624 92.8936 43.0518 93.04C42.9443 93.1865 42.8613 93.3558 42.8027 93.5479C42.7441 93.7399 42.7148 93.945 42.7148 94.1631ZM50.708 91.7168H51.7773V96.8535C51.7773 97.3288 51.6764 97.7324 51.4746 98.0645C51.2728 98.3965 50.9912 98.6488 50.6299 98.8213C50.2686 98.9971 49.8503 99.085 49.375 99.085C49.1732 99.085 48.9486 99.0557 48.7012 98.9971C48.457 98.9385 48.2194 98.8441 47.9883 98.7139C47.7604 98.5869 47.57 98.4193 47.417 98.2109L47.9688 97.5176C48.1576 97.7422 48.3659 97.9066 48.5938 98.0107C48.8216 98.1149 49.0609 98.167 49.3115 98.167C49.5817 98.167 49.8112 98.1165 50 98.0156C50.1921 97.918 50.3402 97.7731 50.4443 97.5811C50.5485 97.389 50.6006 97.1546 50.6006 96.8779V92.9131L50.708 91.7168ZM47.1191 94.417V94.3145C47.1191 93.9141 47.168 93.5495 47.2656 93.2207C47.3633 92.8887 47.5033 92.6038 47.6855 92.3662C47.8678 92.1253 48.0892 91.9414 48.3496 91.8145C48.61 91.6842 48.9046 91.6191 49.2334 91.6191C49.5752 91.6191 49.8665 91.681 50.1074 91.8047C50.3516 91.9284 50.555 92.1058 50.7178 92.3369C50.8805 92.5648 51.0075 92.8382 51.0986 93.1572C51.193 93.473 51.263 93.8245 51.3086 94.2119V94.5391C51.2663 94.9167 51.1947 95.2617 51.0938 95.5742C50.9928 95.8867 50.8594 96.1569 50.6934 96.3848C50.5273 96.6126 50.3223 96.7884 50.0781 96.9121C49.8372 97.0358 49.5524 97.0977 49.2236 97.0977C48.9014 97.0977 48.61 97.0309 48.3496 96.8975C48.0924 96.764 47.8711 96.5768 47.6855 96.3359C47.5033 96.0951 47.3633 95.8118 47.2656 95.4863C47.168 95.1576 47.1191 94.8011 47.1191 94.417ZM48.2959 94.3145V94.417C48.2959 94.6579 48.3187 94.8825 48.3643 95.0908C48.4131 95.2992 48.4863 95.4831 48.584 95.6426C48.6849 95.7988 48.8118 95.9225 48.9648 96.0137C49.1211 96.1016 49.305 96.1455 49.5166 96.1455C49.7933 96.1455 50.0195 96.0869 50.1953 95.9697C50.3743 95.8525 50.5111 95.6947 50.6055 95.4961C50.7031 95.2943 50.7715 95.0697 50.8105 94.8223V93.9385C50.791 93.7464 50.7503 93.5674 50.6885 93.4014C50.6299 93.2354 50.5501 93.0905 50.4492 92.9668C50.3483 92.8398 50.2214 92.7422 50.0684 92.6738C49.9154 92.6022 49.7347 92.5664 49.5264 92.5664C49.3148 92.5664 49.1309 92.612 48.9746 92.7031C48.8184 92.7943 48.6898 92.9196 48.5889 93.0791C48.4912 93.2386 48.418 93.4242 48.3691 93.6357C48.3203 93.8473 48.2959 94.0736 48.2959 94.3145ZM60.0586 96.0283V97H56.4893V96.0283H60.0586ZM56.8311 89.8906V97H55.6055V89.8906H56.8311ZM63.8672 95.9404V93.4209C63.8672 93.2321 63.833 93.0693 63.7646 92.9326C63.6963 92.7959 63.5921 92.6901 63.4521 92.6152C63.3154 92.5404 63.1429 92.5029 62.9346 92.5029C62.7425 92.5029 62.5765 92.5355 62.4365 92.6006C62.2965 92.6657 62.1875 92.7536 62.1094 92.8643C62.0312 92.9749 61.9922 93.1003 61.9922 93.2402H60.8203C60.8203 93.0319 60.8708 92.8301 60.9717 92.6348C61.0726 92.4395 61.2191 92.2653 61.4111 92.1123C61.6032 91.9593 61.8327 91.8389 62.0996 91.751C62.3665 91.6631 62.666 91.6191 62.998 91.6191C63.3952 91.6191 63.7467 91.6859 64.0527 91.8193C64.362 91.9528 64.6045 92.1546 64.7803 92.4248C64.9593 92.6917 65.0488 93.027 65.0488 93.4307V95.7793C65.0488 96.0202 65.0651 96.2367 65.0977 96.4287C65.1335 96.6175 65.1839 96.7819 65.249 96.9219V97H64.043C63.9876 96.873 63.9437 96.7119 63.9111 96.5166C63.8818 96.318 63.8672 96.126 63.8672 95.9404ZM64.0381 93.7871L64.0479 94.5146H63.2031C62.985 94.5146 62.793 94.5358 62.627 94.5781C62.4609 94.6172 62.3226 94.6758 62.2119 94.7539C62.1012 94.832 62.0182 94.9264 61.9629 95.0371C61.9076 95.1478 61.8799 95.2731 61.8799 95.4131C61.8799 95.5531 61.9124 95.6816 61.9775 95.7988C62.0426 95.9128 62.137 96.0023 62.2607 96.0674C62.3877 96.1325 62.5407 96.165 62.7197 96.165C62.9606 96.165 63.1706 96.1162 63.3496 96.0186C63.5319 95.9176 63.6751 95.7956 63.7793 95.6523C63.8835 95.5059 63.9388 95.3675 63.9453 95.2373L64.3262 95.7598C64.2871 95.8932 64.2204 96.0365 64.126 96.1895C64.0316 96.3424 63.9079 96.4889 63.7549 96.6289C63.6051 96.7656 63.4245 96.8779 63.2129 96.9658C63.0046 97.0537 62.7637 97.0977 62.4902 97.0977C62.1452 97.0977 61.8376 97.0293 61.5674 96.8926C61.2972 96.7526 61.0856 96.5654 60.9326 96.3311C60.7796 96.0934 60.7031 95.8249 60.7031 95.5254C60.7031 95.2454 60.7552 94.998 60.8594 94.7832C60.9668 94.5651 61.123 94.3828 61.3281 94.2363C61.5365 94.0898 61.7904 93.9792 62.0898 93.9043C62.3893 93.8262 62.7311 93.7871 63.1152 93.7871H64.0381ZM67.4463 92.8447V97H66.2695V91.7168H67.3779L67.4463 92.8447ZM67.2363 94.1631L66.8555 94.1582C66.8587 93.7839 66.9108 93.4404 67.0117 93.1279C67.1159 92.8154 67.2591 92.5469 67.4414 92.3223C67.627 92.0977 67.8483 91.9251 68.1055 91.8047C68.3626 91.681 68.6491 91.6191 68.9648 91.6191C69.2188 91.6191 69.4482 91.6549 69.6533 91.7266C69.8617 91.7949 70.0391 91.9072 70.1855 92.0635C70.3353 92.2197 70.4492 92.4232 70.5273 92.6738C70.6055 92.9212 70.6445 93.2256 70.6445 93.5869V97H69.4629V93.582C69.4629 93.3281 69.4255 93.1279 69.3506 92.9814C69.279 92.8317 69.1732 92.7259 69.0332 92.6641C68.8965 92.599 68.7256 92.5664 68.5205 92.5664C68.3187 92.5664 68.138 92.6087 67.9785 92.6934C67.819 92.778 67.6839 92.8936 67.5732 93.04C67.4658 93.1865 67.3828 93.3558 67.3242 93.5479C67.2656 93.7399 67.2363 93.945 67.2363 94.1631ZM75.2295 91.7168H76.2988V96.8535C76.2988 97.3288 76.1979 97.7324 75.9961 98.0645C75.7943 98.3965 75.5127 98.6488 75.1514 98.8213C74.79 98.9971 74.3717 99.085 73.8965 99.085C73.6947 99.085 73.4701 99.0557 73.2227 98.9971C72.9785 98.9385 72.7409 98.8441 72.5098 98.7139C72.2819 98.5869 72.0915 98.4193 71.9385 98.2109L72.4902 97.5176C72.679 97.7422 72.8874 97.9066 73.1152 98.0107C73.3431 98.1149 73.5824 98.167 73.833 98.167C74.1032 98.167 74.3327 98.1165 74.5215 98.0156C74.7135 97.918 74.8617 97.7731 74.9658 97.5811C75.07 97.389 75.1221 97.1546 75.1221 96.8779V92.9131L75.2295 91.7168ZM71.6406 94.417V94.3145C71.6406 93.9141 71.6895 93.5495 71.7871 93.2207C71.8848 92.8887 72.0247 92.6038 72.207 92.3662C72.3893 92.1253 72.6107 91.9414 72.8711 91.8145C73.1315 91.6842 73.4261 91.6191 73.7549 91.6191C74.0967 91.6191 74.388 91.681 74.6289 91.8047C74.873 91.9284 75.0765 92.1058 75.2393 92.3369C75.402 92.5648 75.529 92.8382 75.6201 93.1572C75.7145 93.473 75.7845 93.8245 75.8301 94.2119V94.5391C75.7878 94.9167 75.7161 95.2617 75.6152 95.5742C75.5143 95.8867 75.3809 96.1569 75.2148 96.3848C75.0488 96.6126 74.8438 96.7884 74.5996 96.9121C74.3587 97.0358 74.0739 97.0977 73.7451 97.0977C73.4229 97.0977 73.1315 97.0309 72.8711 96.8975C72.6139 96.764 72.3926 96.5768 72.207 96.3359C72.0247 96.0951 71.8848 95.8118 71.7871 95.4863C71.6895 95.1576 71.6406 94.8011 71.6406 94.417ZM72.8174 94.3145V94.417C72.8174 94.6579 72.8402 94.8825 72.8857 95.0908C72.9346 95.2992 73.0078 95.4831 73.1055 95.6426C73.2064 95.7988 73.3333 95.9225 73.4863 96.0137C73.6426 96.1016 73.8265 96.1455 74.0381 96.1455C74.3148 96.1455 74.541 96.0869 74.7168 95.9697C74.8958 95.8525 75.0326 95.6947 75.127 95.4961C75.2246 95.2943 75.293 95.0697 75.332 94.8223V93.9385C75.3125 93.7464 75.2718 93.5674 75.21 93.4014C75.1514 93.2354 75.0716 93.0905 74.9707 92.9668C74.8698 92.8398 74.7428 92.7422 74.5898 92.6738C74.4368 92.6022 74.2562 92.5664 74.0479 92.5664C73.8363 92.5664 73.6523 92.612 73.4961 92.7031C73.3398 92.7943 73.2113 92.9196 73.1104 93.0791C73.0127 93.2386 72.9395 93.4242 72.8906 93.6357C72.8418 93.8473 72.8174 94.0736 72.8174 94.3145ZM80.6982 95.7549V91.7168H81.8799V97H80.7666L80.6982 95.7549ZM80.8643 94.6562L81.2598 94.6465C81.2598 95.0013 81.2207 95.3285 81.1426 95.6279C81.0645 95.9242 80.944 96.1829 80.7812 96.4043C80.6185 96.6224 80.4102 96.7933 80.1562 96.917C79.9023 97.0374 79.598 97.0977 79.2432 97.0977C78.986 97.0977 78.75 97.0602 78.5352 96.9854C78.3203 96.9105 78.1348 96.7949 77.9785 96.6387C77.8255 96.4824 77.7067 96.279 77.6221 96.0283C77.5374 95.7777 77.4951 95.4782 77.4951 95.1299V91.7168H78.6719V95.1396C78.6719 95.3317 78.6947 95.4928 78.7402 95.623C78.7858 95.75 78.8477 95.8525 78.9258 95.9307C79.0039 96.0088 79.0951 96.0641 79.1992 96.0967C79.3034 96.1292 79.4141 96.1455 79.5312 96.1455C79.8665 96.1455 80.1302 96.0804 80.3223 95.9502C80.5176 95.8167 80.6559 95.6377 80.7373 95.4131C80.8219 95.1885 80.8643 94.9362 80.8643 94.6562ZM86.0645 95.9404V93.4209C86.0645 93.2321 86.0303 93.0693 85.9619 92.9326C85.8936 92.7959 85.7894 92.6901 85.6494 92.6152C85.5127 92.5404 85.3402 92.5029 85.1318 92.5029C84.9398 92.5029 84.7738 92.5355 84.6338 92.6006C84.4938 92.6657 84.3848 92.7536 84.3066 92.8643C84.2285 92.9749 84.1895 93.1003 84.1895 93.2402H83.0176C83.0176 93.0319 83.068 92.8301 83.1689 92.6348C83.2699 92.4395 83.4163 92.2653 83.6084 92.1123C83.8005 91.9593 84.0299 91.8389 84.2969 91.751C84.5638 91.6631 84.8633 91.6191 85.1953 91.6191C85.5924 91.6191 85.944 91.6859 86.25 91.8193C86.5592 91.9528 86.8018 92.1546 86.9775 92.4248C87.1566 92.6917 87.2461 93.027 87.2461 93.4307V95.7793C87.2461 96.0202 87.2624 96.2367 87.2949 96.4287C87.3307 96.6175 87.3812 96.7819 87.4463 96.9219V97H86.2402C86.1849 96.873 86.141 96.7119 86.1084 96.5166C86.0791 96.318 86.0645 96.126 86.0645 95.9404ZM86.2354 93.7871L86.2451 94.5146H85.4004C85.1823 94.5146 84.9902 94.5358 84.8242 94.5781C84.6582 94.6172 84.5199 94.6758 84.4092 94.7539C84.2985 94.832 84.2155 94.9264 84.1602 95.0371C84.1048 95.1478 84.0771 95.2731 84.0771 95.4131C84.0771 95.5531 84.1097 95.6816 84.1748 95.7988C84.2399 95.9128 84.3343 96.0023 84.458 96.0674C84.585 96.1325 84.738 96.165 84.917 96.165C85.1579 96.165 85.3678 96.1162 85.5469 96.0186C85.7292 95.9176 85.8724 95.7956 85.9766 95.6523C86.0807 95.5059 86.1361 95.3675 86.1426 95.2373L86.5234 95.7598C86.4844 95.8932 86.4176 96.0365 86.3232 96.1895C86.2288 96.3424 86.1051 96.4889 85.9521 96.6289C85.8024 96.7656 85.6217 96.8779 85.4102 96.9658C85.2018 97.0537 84.9609 97.0977 84.6875 97.0977C84.3424 97.0977 84.0348 97.0293 83.7646 96.8926C83.4945 96.7526 83.2829 96.5654 83.1299 96.3311C82.9769 96.0934 82.9004 95.8249 82.9004 95.5254C82.9004 95.2454 82.9525 94.998 83.0566 94.7832C83.1641 94.5651 83.3203 94.3828 83.5254 94.2363C83.7337 94.0898 83.9876 93.9792 84.2871 93.9043C84.5866 93.8262 84.9284 93.7871 85.3125 93.7871H86.2354ZM91.8604 91.7168H92.9297V96.8535C92.9297 97.3288 92.8288 97.7324 92.627 98.0645C92.4251 98.3965 92.1436 98.6488 91.7822 98.8213C91.4209 98.9971 91.0026 99.085 90.5273 99.085C90.3255 99.085 90.1009 99.0557 89.8535 98.9971C89.6094 98.9385 89.3717 98.8441 89.1406 98.7139C88.9128 98.5869 88.7223 98.4193 88.5693 98.2109L89.1211 97.5176C89.3099 97.7422 89.5182 97.9066 89.7461 98.0107C89.974 98.1149 90.2132 98.167 90.4639 98.167C90.734 98.167 90.9635 98.1165 91.1523 98.0156C91.3444 97.918 91.4925 97.7731 91.5967 97.5811C91.7008 97.389 91.7529 97.1546 91.7529 96.8779V92.9131L91.8604 91.7168ZM88.2715 94.417V94.3145C88.2715 93.9141 88.3203 93.5495 88.418 93.2207C88.5156 92.8887 88.6556 92.6038 88.8379 92.3662C89.0202 92.1253 89.2415 91.9414 89.502 91.8145C89.7624 91.6842 90.057 91.6191 90.3857 91.6191C90.7275 91.6191 91.0189 91.681 91.2598 91.8047C91.5039 91.9284 91.7074 92.1058 91.8701 92.3369C92.0329 92.5648 92.1598 92.8382 92.251 93.1572C92.3454 93.473 92.4154 93.8245 92.4609 94.2119V94.5391C92.4186 94.9167 92.347 95.2617 92.2461 95.5742C92.1452 95.8867 92.0117 96.1569 91.8457 96.3848C91.6797 96.6126 91.4746 96.7884 91.2305 96.9121C90.9896 97.0358 90.7048 97.0977 90.376 97.0977C90.0537 97.0977 89.7624 97.0309 89.502 96.8975C89.2448 96.764 89.0234 96.5768 88.8379 96.3359C88.6556 96.0951 88.5156 95.8118 88.418 95.4863C88.3203 95.1576 88.2715 94.8011 88.2715 94.417ZM89.4482 94.3145V94.417C89.4482 94.6579 89.471 94.8825 89.5166 95.0908C89.5654 95.2992 89.6387 95.4831 89.7363 95.6426C89.8372 95.7988 89.9642 95.9225 90.1172 96.0137C90.2734 96.1016 90.4574 96.1455 90.6689 96.1455C90.9456 96.1455 91.1719 96.0869 91.3477 95.9697C91.5267 95.8525 91.6634 95.6947 91.7578 95.4961C91.8555 95.2943 91.9238 95.0697 91.9629 94.8223V93.9385C91.9434 93.7464 91.9027 93.5674 91.8408 93.4014C91.7822 93.2354 91.7025 93.0905 91.6016 92.9668C91.5007 92.8398 91.3737 92.7422 91.2207 92.6738C91.0677 92.6022 90.887 92.5664 90.6787 92.5664C90.4671 92.5664 90.2832 92.612 90.127 92.7031C89.9707 92.7943 89.8421 92.9196 89.7412 93.0791C89.6436 93.2386 89.5703 93.4242 89.5215 93.6357C89.4727 93.8473 89.4482 94.0736 89.4482 94.3145ZM96.4795 97.0977C96.0889 97.0977 95.7357 97.0342 95.4199 96.9072C95.1074 96.777 94.8405 96.5964 94.6191 96.3652C94.401 96.1341 94.2334 95.8623 94.1162 95.5498C93.999 95.2373 93.9404 94.9004 93.9404 94.5391V94.3438C93.9404 93.9303 94.0007 93.556 94.1211 93.2207C94.2415 92.8854 94.4092 92.599 94.624 92.3613C94.8389 92.1204 95.0928 91.9365 95.3857 91.8096C95.6787 91.6826 95.9961 91.6191 96.3379 91.6191C96.7155 91.6191 97.0459 91.6826 97.3291 91.8096C97.6123 91.9365 97.8467 92.1156 98.0322 92.3467C98.221 92.5745 98.361 92.8464 98.4521 93.1621C98.5465 93.4779 98.5938 93.8262 98.5938 94.207V94.71H94.5117V93.8652H97.4316V93.7725C97.4251 93.5609 97.3828 93.3623 97.3047 93.1768C97.2298 92.9912 97.1143 92.8415 96.958 92.7275C96.8018 92.6136 96.5934 92.5566 96.333 92.5566C96.1377 92.5566 95.9635 92.599 95.8105 92.6836C95.6608 92.765 95.5355 92.8838 95.4346 93.04C95.3337 93.1963 95.2555 93.3851 95.2002 93.6064C95.1481 93.8245 95.1221 94.0703 95.1221 94.3438V94.5391C95.1221 94.7702 95.153 94.985 95.2148 95.1836C95.2799 95.3789 95.3743 95.5498 95.498 95.6963C95.6217 95.8428 95.7715 95.9583 95.9473 96.043C96.123 96.1243 96.3232 96.165 96.5479 96.165C96.8311 96.165 97.0833 96.1081 97.3047 95.9941C97.526 95.8802 97.7181 95.7191 97.8809 95.5107L98.501 96.1113C98.387 96.2773 98.2389 96.4368 98.0566 96.5898C97.8743 96.7396 97.6514 96.8617 97.3877 96.9561C97.1273 97.0505 96.8245 97.0977 96.4795 97.0977ZM102.476 95.5693C102.476 95.4521 102.446 95.3464 102.388 95.252C102.329 95.1543 102.217 95.0664 102.051 94.9883C101.888 94.9102 101.647 94.8385 101.328 94.7734C101.048 94.7116 100.791 94.6383 100.557 94.5537C100.326 94.4658 100.127 94.36 99.9609 94.2363C99.7949 94.1126 99.6663 93.9661 99.5752 93.7969C99.484 93.6276 99.4385 93.4323 99.4385 93.2109C99.4385 92.9961 99.4857 92.7926 99.5801 92.6006C99.6745 92.4085 99.8096 92.2393 99.9854 92.0928C100.161 91.9463 100.374 91.8307 100.625 91.7461C100.879 91.6615 101.162 91.6191 101.475 91.6191C101.917 91.6191 102.297 91.694 102.612 91.8438C102.931 91.9902 103.175 92.1904 103.345 92.4443C103.514 92.695 103.599 92.9782 103.599 93.2939H102.422C102.422 93.154 102.386 93.0238 102.314 92.9033C102.246 92.7796 102.142 92.6803 102.002 92.6055C101.862 92.5273 101.686 92.4883 101.475 92.4883C101.273 92.4883 101.105 92.5208 100.972 92.5859C100.841 92.6478 100.744 92.7292 100.679 92.8301C100.617 92.931 100.586 93.0417 100.586 93.1621C100.586 93.25 100.602 93.3298 100.635 93.4014C100.671 93.4697 100.729 93.5332 100.811 93.5918C100.892 93.6471 101.003 93.6992 101.143 93.748C101.286 93.7969 101.465 93.8441 101.68 93.8896C102.083 93.9743 102.43 94.0833 102.72 94.2168C103.013 94.347 103.237 94.5163 103.394 94.7246C103.55 94.9297 103.628 95.1901 103.628 95.5059C103.628 95.7402 103.577 95.9551 103.477 96.1504C103.379 96.3424 103.236 96.5101 103.047 96.6533C102.858 96.7933 102.632 96.9023 102.368 96.9805C102.108 97.0586 101.815 97.0977 101.489 97.0977C101.011 97.0977 100.605 97.013 100.273 96.8438C99.9414 96.6712 99.6891 96.4515 99.5166 96.1846C99.3473 95.9144 99.2627 95.6344 99.2627 95.3447H100.4C100.413 95.5628 100.474 95.737 100.581 95.8672C100.692 95.9941 100.828 96.0869 100.991 96.1455C101.157 96.2008 101.328 96.2285 101.504 96.2285C101.715 96.2285 101.893 96.2008 102.036 96.1455C102.179 96.0869 102.288 96.0088 102.363 95.9111C102.438 95.8102 102.476 95.6963 102.476 95.5693Z" fill="black"/>
<defs>
<filter id="filter0_d_218_1055" x="12" y="0" width="81" height="81" filterUnits="userSpaceOnUse" color-interpolation-filters="sRGB">
<feFlood flood-opacity="0" result="BackgroundImageFix"/>
<feColorMatrix in="SourceAlpha" type="matrix" values="0 0 0 0 0 0 0 0 0 0 0 0 0 0 0 0 0 0 127 0" result="hardAlpha"/>
<feOffset dy="2"/>
<feGaussianBlur stdDeviation="2"/>
<feComposite in2="hardAlpha" operator="out"/>
<feColorMatrix type="matrix" values="0 0 0 0 0 0 0 0 0 0 0 0 0 0 0 0 0 0 0.1 0"/>
<feBlend mode="normal" in2="BackgroundImageFix" result="effect1_dropShadow_218_1055"/>
<feBlend mode="normal" in="SourceGraphic" in2="effect1_dropShadow_218_1055" result="shape"/>
</filter>
</defs>
</svg>
