<svg width="82" height="100" viewBox="0 0 82 100" fill="none" xmlns="http://www.w3.org/2000/svg">
<g filter="url(#filter0_d_218_935)">
<rect x="5" y="2" width="73" height="73" rx="15" fill="#FCFCFC"/>
</g>
<g clip-path="url(#clip0_218_935)">
<path d="M41.5 20C37.8411 20 34.2643 21.085 31.222 23.1178C28.1796 25.1506 25.8085 28.0399 24.4082 31.4204C23.008 34.8008 22.6417 38.5205 23.3555 42.1092C24.0693 45.6978 25.8313 48.9942 28.4185 51.5815C31.0058 54.1687 34.3022 55.9307 37.8908 56.6445C41.4795 57.3584 45.1992 56.992 48.5797 55.5918C51.9601 54.1916 54.8494 51.8204 56.8822 48.7781C58.915 45.7357 60 42.159 60 38.5C59.9947 33.5951 58.0439 28.8927 54.5756 25.4244C51.1074 21.9561 46.4049 20.0053 41.5 20V20ZM54.8308 30.7917H49.8651C48.7535 28.2155 47.2899 25.806 45.516 23.6322C49.4419 24.7004 52.7886 27.2728 54.8308 30.7917ZM48.4375 38.5C48.4249 40.0696 48.1775 41.6285 47.7037 43.125H35.2963C34.8225 41.6285 34.5752 40.0696 34.5625 38.5C34.5752 36.9304 34.8225 35.3715 35.2963 33.875H47.7037C48.1775 35.3715 48.4249 36.9304 48.4375 38.5ZM36.5328 46.2083H46.4673C45.1587 48.7917 43.4859 51.1738 41.5 53.2815C39.5134 51.1744 37.8405 48.7922 36.5328 46.2083ZM36.5328 30.7917C37.8413 28.2083 39.5141 25.8262 41.5 23.7185C43.4866 25.8256 45.1596 28.2078 46.4673 30.7917H36.5328ZM37.4917 23.6322C35.7151 25.8056 34.2489 28.2151 33.1349 30.7917H28.1692C30.2132 27.2712 33.563 24.6986 37.4917 23.6322ZM26.794 33.875H32.0958C31.6962 35.3845 31.489 36.9385 31.4792 38.5C31.489 40.0615 31.6962 41.6155 32.0958 43.125H26.794C25.8464 40.1145 25.8464 36.8855 26.794 33.875ZM28.1692 46.2083H33.1349C34.2489 48.7849 35.7151 51.1944 37.4917 53.3678C33.563 52.3014 30.2132 49.7288 28.1692 46.2083ZM45.516 53.3678C47.2899 51.194 48.7535 48.7845 49.8651 46.2083H54.8308C52.7886 49.7272 49.4419 52.2996 45.516 53.3678ZM56.206 43.125H50.9042C51.3038 41.6155 51.511 40.0615 51.5208 38.5C51.511 36.9385 51.3038 35.3845 50.9042 33.875H56.2029C57.1505 36.8855 57.1505 40.1145 56.2029 43.125H56.206Z" fill="#FF6600"/>
</g>
<path d="M2.50488 95.4033L3.9209 89.8906H4.66309L4.58008 91.3115L3.06641 97H2.29492L2.50488 95.4033ZM1.44531 89.8906L2.59277 95.3594L2.69531 97H1.875L0.229492 89.8906H1.44531ZM6.26953 95.3447L7.40234 89.8906H8.62305L6.97754 97H6.15723L6.26953 95.3447ZM4.95117 89.8906L6.35254 95.418L6.55762 97H5.78613L4.29688 91.3115L4.21875 89.8906H4.95117ZM11.5869 97.0977C11.1963 97.0977 10.8431 97.0342 10.5273 96.9072C10.2148 96.777 9.94792 96.5964 9.72656 96.3652C9.50846 96.1341 9.34082 95.8623 9.22363 95.5498C9.10645 95.2373 9.04785 94.9004 9.04785 94.5391V94.3438C9.04785 93.9303 9.10807 93.556 9.22852 93.2207C9.34896 92.8854 9.5166 92.599 9.73145 92.3613C9.94629 92.1204 10.2002 91.9365 10.4932 91.8096C10.7861 91.6826 11.1035 91.6191 11.4453 91.6191C11.8229 91.6191 12.1533 91.6826 12.4365 91.8096C12.7197 91.9365 12.9541 92.1156 13.1396 92.3467C13.3285 92.5745 13.4684 92.8464 13.5596 93.1621C13.654 93.4779 13.7012 93.8262 13.7012 94.207V94.71H9.61914V93.8652H12.5391V93.7725C12.5326 93.5609 12.4902 93.3623 12.4121 93.1768C12.3372 92.9912 12.2217 92.8415 12.0654 92.7275C11.9092 92.6136 11.7008 92.5566 11.4404 92.5566C11.2451 92.5566 11.071 92.599 10.918 92.6836C10.7682 92.765 10.6429 92.8838 10.542 93.04C10.4411 93.1963 10.363 93.3851 10.3076 93.6064C10.2555 93.8245 10.2295 94.0703 10.2295 94.3438V94.5391C10.2295 94.7702 10.2604 94.985 10.3223 95.1836C10.3874 95.3789 10.4818 95.5498 10.6055 95.6963C10.7292 95.8428 10.8789 95.9583 11.0547 96.043C11.2305 96.1243 11.4307 96.165 11.6553 96.165C11.9385 96.165 12.1908 96.1081 12.4121 95.9941C12.6335 95.8802 12.8255 95.7191 12.9883 95.5107L13.6084 96.1113C13.4945 96.2773 13.3464 96.4368 13.1641 96.5898C12.9818 96.7396 12.7588 96.8617 12.4951 96.9561C12.2347 97.0505 11.932 97.0977 11.5869 97.0977ZM14.624 89.5H15.8008V95.8721L15.6885 97H14.624V89.5ZM19.248 94.3096V94.4121C19.248 94.8027 19.2041 95.1624 19.1162 95.4912C19.0316 95.8167 18.9014 96.0999 18.7256 96.3408C18.5531 96.5817 18.3382 96.7689 18.0811 96.9023C17.8271 97.0326 17.5326 97.0977 17.1973 97.0977C16.8685 97.0977 16.582 97.0358 16.3379 96.9121C16.0938 96.7884 15.8887 96.6126 15.7227 96.3848C15.5599 96.1569 15.4281 95.8851 15.3271 95.5693C15.2262 95.2536 15.1546 94.9053 15.1123 94.5244V94.1973C15.1546 93.8132 15.2262 93.4648 15.3271 93.1523C15.4281 92.8366 15.5599 92.5648 15.7227 92.3369C15.8887 92.1058 16.0921 91.9284 16.333 91.8047C16.5771 91.681 16.862 91.6191 17.1875 91.6191C17.526 91.6191 17.8239 91.6842 18.0811 91.8145C18.3415 91.9447 18.5579 92.1302 18.7305 92.3711C18.903 92.6087 19.0316 92.8919 19.1162 93.2207C19.2041 93.5495 19.248 93.9124 19.248 94.3096ZM18.0713 94.4121V94.3096C18.0713 94.0719 18.0518 93.849 18.0127 93.6406C17.9736 93.429 17.9085 93.2435 17.8174 93.084C17.7295 92.9245 17.609 92.7992 17.4561 92.708C17.3063 92.6136 17.1191 92.5664 16.8945 92.5664C16.6862 92.5664 16.5072 92.6022 16.3574 92.6738C16.2077 92.7454 16.0824 92.8431 15.9814 92.9668C15.8805 93.0905 15.8008 93.2337 15.7422 93.3965C15.6868 93.5592 15.6494 93.735 15.6299 93.9238V94.8076C15.6592 95.0518 15.721 95.2764 15.8154 95.4814C15.9131 95.6833 16.0498 95.846 16.2256 95.9697C16.4014 96.0902 16.6276 96.1504 16.9043 96.1504C17.1224 96.1504 17.3063 96.1064 17.4561 96.0186C17.6058 95.9307 17.7246 95.8086 17.8125 95.6523C17.9036 95.4928 17.9688 95.3073 18.0078 95.0957C18.0501 94.8841 18.0713 94.6562 18.0713 94.4121ZM24.917 97H23.3984L23.4082 96.0283H24.917C25.3564 96.0283 25.7243 95.9323 26.0205 95.7402C26.32 95.5482 26.5446 95.2731 26.6943 94.915C26.8473 94.557 26.9238 94.1305 26.9238 93.6357V93.25C26.9238 92.8659 26.8799 92.5257 26.792 92.2295C26.7074 91.9333 26.5804 91.6842 26.4111 91.4824C26.2451 91.2806 26.04 91.1276 25.7959 91.0234C25.555 90.9193 25.2767 90.8672 24.9609 90.8672H23.3691V89.8906H24.9609C25.4329 89.8906 25.8643 89.9704 26.2549 90.1299C26.6455 90.2861 26.9824 90.5124 27.2656 90.8086C27.5521 91.1048 27.7718 91.4596 27.9248 91.873C28.0778 92.2865 28.1543 92.7487 28.1543 93.2598V93.6357C28.1543 94.1468 28.0778 94.609 27.9248 95.0225C27.7718 95.4359 27.5521 95.7907 27.2656 96.0869C26.9792 96.3799 26.6374 96.6061 26.2402 96.7656C25.8464 96.9219 25.4053 97 24.917 97ZM24.0771 89.8906V97H22.8516V89.8906H24.0771ZM31.5967 97.0977C31.2061 97.0977 30.8529 97.0342 30.5371 96.9072C30.2246 96.777 29.9577 96.5964 29.7363 96.3652C29.5182 96.1341 29.3506 95.8623 29.2334 95.5498C29.1162 95.2373 29.0576 94.9004 29.0576 94.5391V94.3438C29.0576 93.9303 29.1178 93.556 29.2383 93.2207C29.3587 92.8854 29.5264 92.599 29.7412 92.3613C29.9561 92.1204 30.21 91.9365 30.5029 91.8096C30.7959 91.6826 31.1133 91.6191 31.4551 91.6191C31.8327 91.6191 32.1631 91.6826 32.4463 91.8096C32.7295 91.9365 32.9639 92.1156 33.1494 92.3467C33.3382 92.5745 33.4782 92.8464 33.5693 93.1621C33.6637 93.4779 33.7109 93.8262 33.7109 94.207V94.71H29.6289V93.8652H32.5488V93.7725C32.5423 93.5609 32.5 93.3623 32.4219 93.1768C32.347 92.9912 32.2314 92.8415 32.0752 92.7275C31.9189 92.6136 31.7106 92.5566 31.4502 92.5566C31.2549 92.5566 31.0807 92.599 30.9277 92.6836C30.778 92.765 30.6527 92.8838 30.5518 93.04C30.4508 93.1963 30.3727 93.3851 30.3174 93.6064C30.2653 93.8245 30.2393 94.0703 30.2393 94.3438V94.5391C30.2393 94.7702 30.2702 94.985 30.332 95.1836C30.3971 95.3789 30.4915 95.5498 30.6152 95.6963C30.7389 95.8428 30.8887 95.9583 31.0645 96.043C31.2402 96.1243 31.4404 96.165 31.665 96.165C31.9482 96.165 32.2005 96.1081 32.4219 95.9941C32.6432 95.8802 32.8353 95.7191 32.998 95.5107L33.6182 96.1113C33.5042 96.2773 33.3561 96.4368 33.1738 96.5898C32.9915 96.7396 32.7686 96.8617 32.5049 96.9561C32.2445 97.0505 31.9417 97.0977 31.5967 97.0977ZM36.2793 96.0674L37.5732 91.7168H38.7939L36.958 97H36.1963L36.2793 96.0674ZM35.2881 91.7168L36.6064 96.0869L36.6699 97H35.9082L34.0625 91.7168H35.2881ZM41.7822 97.0977C41.3916 97.0977 41.0384 97.0342 40.7227 96.9072C40.4102 96.777 40.1432 96.5964 39.9219 96.3652C39.7038 96.1341 39.5361 95.8623 39.4189 95.5498C39.3018 95.2373 39.2432 94.9004 39.2432 94.5391V94.3438C39.2432 93.9303 39.3034 93.556 39.4238 93.2207C39.5443 92.8854 39.7119 92.599 39.9268 92.3613C40.1416 92.1204 40.3955 91.9365 40.6885 91.8096C40.9814 91.6826 41.2988 91.6191 41.6406 91.6191C42.0182 91.6191 42.3486 91.6826 42.6318 91.8096C42.915 91.9365 43.1494 92.1156 43.335 92.3467C43.5238 92.5745 43.6637 92.8464 43.7549 93.1621C43.8493 93.4779 43.8965 93.8262 43.8965 94.207V94.71H39.8145V93.8652H42.7344V93.7725C42.7279 93.5609 42.6855 93.3623 42.6074 93.1768C42.5326 92.9912 42.417 92.8415 42.2607 92.7275C42.1045 92.6136 41.8962 92.5566 41.6357 92.5566C41.4404 92.5566 41.2663 92.599 41.1133 92.6836C40.9635 92.765 40.8382 92.8838 40.7373 93.04C40.6364 93.1963 40.5583 93.3851 40.5029 93.6064C40.4508 93.8245 40.4248 94.0703 40.4248 94.3438V94.5391C40.4248 94.7702 40.4557 94.985 40.5176 95.1836C40.5827 95.3789 40.6771 95.5498 40.8008 95.6963C40.9245 95.8428 41.0742 95.9583 41.25 96.043C41.4258 96.1243 41.626 96.165 41.8506 96.165C42.1338 96.165 42.3861 96.1081 42.6074 95.9941C42.8288 95.8802 43.0208 95.7191 43.1836 95.5107L43.8037 96.1113C43.6898 96.2773 43.5417 96.4368 43.3594 96.5898C43.1771 96.7396 42.9541 96.8617 42.6904 96.9561C42.43 97.0505 42.1273 97.0977 41.7822 97.0977ZM46.0742 89.5V97H44.8926V89.5H46.0742ZM47.1387 94.417V94.3047C47.1387 93.9238 47.194 93.5706 47.3047 93.2451C47.4154 92.9163 47.5749 92.6315 47.7832 92.3906C47.9948 92.1465 48.252 91.9577 48.5547 91.8242C48.8607 91.6875 49.2057 91.6191 49.5898 91.6191C49.9772 91.6191 50.3223 91.6875 50.625 91.8242C50.931 91.9577 51.1898 92.1465 51.4014 92.3906C51.613 92.6315 51.7741 92.9163 51.8848 93.2451C51.9954 93.5706 52.0508 93.9238 52.0508 94.3047V94.417C52.0508 94.7979 51.9954 95.151 51.8848 95.4766C51.7741 95.8021 51.613 96.0869 51.4014 96.3311C51.1898 96.5719 50.9326 96.7607 50.6299 96.8975C50.3271 97.0309 49.9837 97.0977 49.5996 97.0977C49.2122 97.0977 48.8656 97.0309 48.5596 96.8975C48.2568 96.7607 47.9997 96.5719 47.7881 96.3311C47.5765 96.0869 47.4154 95.8021 47.3047 95.4766C47.194 95.151 47.1387 94.7979 47.1387 94.417ZM48.3154 94.3047V94.417C48.3154 94.6546 48.3398 94.8792 48.3887 95.0908C48.4375 95.3024 48.514 95.488 48.6182 95.6475C48.7223 95.807 48.8558 95.9323 49.0186 96.0234C49.1813 96.1146 49.375 96.1602 49.5996 96.1602C49.8177 96.1602 50.0065 96.1146 50.166 96.0234C50.3288 95.9323 50.4622 95.807 50.5664 95.6475C50.6706 95.488 50.7471 95.3024 50.7959 95.0908C50.848 94.8792 50.874 94.6546 50.874 94.417V94.3047C50.874 94.0703 50.848 93.849 50.7959 93.6406C50.7471 93.429 50.6689 93.2419 50.5615 93.0791C50.4574 92.9163 50.3239 92.7894 50.1611 92.6982C50.0016 92.6038 49.8112 92.5566 49.5898 92.5566C49.3685 92.5566 49.1764 92.6038 49.0137 92.6982C48.8542 92.7894 48.7223 92.9163 48.6182 93.0791C48.514 93.2419 48.4375 93.429 48.3887 93.6406C48.3398 93.849 48.3154 94.0703 48.3154 94.3047ZM54.2188 92.7324V99.0312H53.042V91.7168H54.126L54.2188 92.7324ZM57.6611 94.3096V94.4121C57.6611 94.7962 57.6156 95.1527 57.5244 95.4814C57.4365 95.807 57.3047 96.0918 57.1289 96.3359C56.9564 96.5768 56.7432 96.764 56.4893 96.8975C56.2354 97.0309 55.9424 97.0977 55.6104 97.0977C55.2816 97.0977 54.9935 97.0374 54.7461 96.917C54.502 96.7933 54.2952 96.6191 54.126 96.3945C53.9567 96.1699 53.82 95.9062 53.7158 95.6035C53.6149 95.2975 53.5433 94.9622 53.501 94.5977V94.2021C53.5433 93.8148 53.6149 93.4632 53.7158 93.1475C53.82 92.8317 53.9567 92.5599 54.126 92.332C54.2952 92.1042 54.502 91.9284 54.7461 91.8047C54.9902 91.681 55.2751 91.6191 55.6006 91.6191C55.9326 91.6191 56.2272 91.6842 56.4844 91.8145C56.7415 91.9414 56.958 92.1237 57.1338 92.3613C57.3096 92.5957 57.4414 92.8789 57.5293 93.2109C57.6172 93.5397 57.6611 93.9059 57.6611 94.3096ZM56.4844 94.4121V94.3096C56.4844 94.0654 56.4616 93.8392 56.416 93.6309C56.3704 93.4193 56.2988 93.2337 56.2012 93.0742C56.1035 92.9147 55.9782 92.791 55.8252 92.7031C55.6755 92.612 55.4948 92.5664 55.2832 92.5664C55.0749 92.5664 54.8958 92.6022 54.7461 92.6738C54.5964 92.7422 54.471 92.8382 54.3701 92.9619C54.2692 93.0856 54.1911 93.2305 54.1357 93.3965C54.0804 93.5592 54.0413 93.7367 54.0186 93.9287V94.876C54.0576 95.1104 54.1243 95.3252 54.2188 95.5205C54.3132 95.7158 54.4466 95.8721 54.6191 95.9893C54.7949 96.1032 55.0195 96.1602 55.293 96.1602C55.5046 96.1602 55.6852 96.1146 55.835 96.0234C55.9847 95.9323 56.1068 95.807 56.2012 95.6475C56.2988 95.4847 56.3704 95.2975 56.416 95.0859C56.4616 94.8743 56.4844 94.6497 56.4844 94.4121ZM59.8389 92.791V97H58.6621V91.7168H59.7705L59.8389 92.791ZM59.6484 94.1631L59.248 94.1582C59.248 93.7936 59.2936 93.4567 59.3848 93.1475C59.4759 92.8382 59.6094 92.5697 59.7852 92.3418C59.9609 92.1107 60.179 91.9333 60.4395 91.8096C60.7031 91.6826 61.0075 91.6191 61.3525 91.6191C61.5934 91.6191 61.8132 91.6549 62.0117 91.7266C62.2135 91.7949 62.3877 91.904 62.5342 92.0537C62.6839 92.2035 62.7979 92.3955 62.876 92.6299C62.9574 92.8643 62.998 93.1475 62.998 93.4795V97H61.8213V93.582C61.8213 93.3249 61.7822 93.123 61.7041 92.9766C61.6292 92.8301 61.5202 92.7259 61.377 92.6641C61.237 92.599 61.0693 92.5664 60.874 92.5664C60.6527 92.5664 60.4639 92.6087 60.3076 92.6934C60.1546 92.778 60.0293 92.8936 59.9316 93.04C59.834 93.1865 59.7624 93.3558 59.7168 93.5479C59.6712 93.7399 59.6484 93.945 59.6484 94.1631ZM62.9248 93.8506L62.373 93.9727C62.373 93.6536 62.417 93.3525 62.5049 93.0693C62.596 92.7829 62.7279 92.5322 62.9004 92.3174C63.0762 92.0993 63.2926 91.9284 63.5498 91.8047C63.807 91.681 64.1016 91.6191 64.4336 91.6191C64.7038 91.6191 64.9447 91.6566 65.1562 91.7314C65.3711 91.8031 65.5534 91.917 65.7031 92.0732C65.8529 92.2295 65.9668 92.4329 66.0449 92.6836C66.123 92.931 66.1621 93.2305 66.1621 93.582V97H64.9805V93.5771C64.9805 93.3102 64.9414 93.1035 64.8633 92.957C64.7884 92.8105 64.681 92.7096 64.541 92.6543C64.401 92.5957 64.2334 92.5664 64.0381 92.5664C63.8558 92.5664 63.6947 92.6006 63.5547 92.6689C63.418 92.734 63.3024 92.8268 63.208 92.9473C63.1136 93.0645 63.042 93.1995 62.9932 93.3525C62.9476 93.5055 62.9248 93.6715 62.9248 93.8506ZM69.7021 97.0977C69.3115 97.0977 68.9583 97.0342 68.6426 96.9072C68.3301 96.777 68.0632 96.5964 67.8418 96.3652C67.6237 96.1341 67.4561 95.8623 67.3389 95.5498C67.2217 95.2373 67.1631 94.9004 67.1631 94.5391V94.3438C67.1631 93.9303 67.2233 93.556 67.3438 93.2207C67.4642 92.8854 67.6318 92.599 67.8467 92.3613C68.0615 92.1204 68.3154 91.9365 68.6084 91.8096C68.9014 91.6826 69.2188 91.6191 69.5605 91.6191C69.9382 91.6191 70.2686 91.6826 70.5518 91.8096C70.835 91.9365 71.0693 92.1156 71.2549 92.3467C71.4437 92.5745 71.5837 92.8464 71.6748 93.1621C71.7692 93.4779 71.8164 93.8262 71.8164 94.207V94.71H67.7344V93.8652H70.6543V93.7725C70.6478 93.5609 70.6055 93.3623 70.5273 93.1768C70.4525 92.9912 70.3369 92.8415 70.1807 92.7275C70.0244 92.6136 69.8161 92.5566 69.5557 92.5566C69.3604 92.5566 69.1862 92.599 69.0332 92.6836C68.8835 92.765 68.7581 92.8838 68.6572 93.04C68.5563 93.1963 68.4782 93.3851 68.4229 93.6064C68.3708 93.8245 68.3447 94.0703 68.3447 94.3438V94.5391C68.3447 94.7702 68.3757 94.985 68.4375 95.1836C68.5026 95.3789 68.597 95.5498 68.7207 95.6963C68.8444 95.8428 68.9941 95.9583 69.1699 96.043C69.3457 96.1243 69.5459 96.165 69.7705 96.165C70.0537 96.165 70.306 96.1081 70.5273 95.9941C70.7487 95.8802 70.9408 95.7191 71.1035 95.5107L71.7236 96.1113C71.6097 96.2773 71.4616 96.4368 71.2793 96.5898C71.097 96.7396 70.874 96.8617 70.6104 96.9561C70.3499 97.0505 70.0472 97.0977 69.7021 97.0977ZM73.9014 92.8447V97H72.7246V91.7168H73.833L73.9014 92.8447ZM73.6914 94.1631L73.3105 94.1582C73.3138 93.7839 73.3659 93.4404 73.4668 93.1279C73.571 92.8154 73.7142 92.5469 73.8965 92.3223C74.082 92.0977 74.3034 91.9251 74.5605 91.8047C74.8177 91.681 75.1042 91.6191 75.4199 91.6191C75.6738 91.6191 75.9033 91.6549 76.1084 91.7266C76.3167 91.7949 76.4941 91.9072 76.6406 92.0635C76.7904 92.2197 76.9043 92.4232 76.9824 92.6738C77.0605 92.9212 77.0996 93.2256 77.0996 93.5869V97H75.918V93.582C75.918 93.3281 75.8805 93.1279 75.8057 92.9814C75.734 92.8317 75.6283 92.7259 75.4883 92.6641C75.3516 92.599 75.1807 92.5664 74.9756 92.5664C74.7738 92.5664 74.5931 92.6087 74.4336 92.6934C74.2741 92.778 74.139 92.8936 74.0283 93.04C73.9209 93.1865 73.8379 93.3558 73.7793 93.5479C73.7207 93.7399 73.6914 93.945 73.6914 94.1631ZM80.7227 91.7168V92.5762H77.7441V91.7168H80.7227ZM78.6035 90.4229H79.7803V95.54C79.7803 95.7028 79.8031 95.8281 79.8486 95.916C79.8975 96.0007 79.9642 96.0576 80.0488 96.0869C80.1335 96.1162 80.2327 96.1309 80.3467 96.1309C80.4281 96.1309 80.5062 96.126 80.5811 96.1162C80.6559 96.1064 80.7161 96.0967 80.7617 96.0869L80.7666 96.9854C80.6689 97.0146 80.555 97.0407 80.4248 97.0635C80.2979 97.0863 80.1514 97.0977 79.9854 97.0977C79.7152 97.0977 79.4759 97.0505 79.2676 96.9561C79.0592 96.8584 78.8965 96.7005 78.7793 96.4824C78.6621 96.2643 78.6035 95.9746 78.6035 95.6133V90.4229Z" fill="black"/>
<defs>
<filter id="filter0_d_218_935" x="1" y="0" width="81" height="81" filterUnits="userSpaceOnUse" color-interpolation-filters="sRGB">
<feFlood flood-opacity="0" result="BackgroundImageFix"/>
<feColorMatrix in="SourceAlpha" type="matrix" values="0 0 0 0 0 0 0 0 0 0 0 0 0 0 0 0 0 0 127 0" result="hardAlpha"/>
<feOffset dy="2"/>
<feGaussianBlur stdDeviation="2"/>
<feComposite in2="hardAlpha" operator="out"/>
<feColorMatrix type="matrix" values="0 0 0 0 0 0 0 0 0 0 0 0 0 0 0 0 0 0 0.1 0"/>
<feBlend mode="normal" in2="BackgroundImageFix" result="effect1_dropShadow_218_935"/>
<feBlend mode="normal" in="SourceGraphic" in2="effect1_dropShadow_218_935" result="shape"/>
</filter>
<clipPath id="clip0_218_935">
<rect width="37" height="37" fill="white" transform="translate(23 20)"/>
</clipPath>
</defs>
</svg>
